<?xml version="1.0" encoding="UTF-8" standalone="no"?>
<!-- Created with Inkscape (http://www.inkscape.org/) -->

<svg
   version="1.1"
   id="svg2"
   width="800"
   height="800"
   viewBox="0 0 800 800"
   sodipodi:docname="delivery-truck-goods-publicdomainvectors.org.ai"
   xmlns:inkscape="http://www.inkscape.org/namespaces/inkscape"
   xmlns:sodipodi="http://sodipodi.sourceforge.net/DTD/sodipodi-0.dtd"
   xmlns="http://www.w3.org/2000/svg"
   xmlns:svg="http://www.w3.org/2000/svg">
  <defs
     id="defs6">
    <clipPath
       clipPathUnits="userSpaceOnUse"
       id="clipPath16">
      <path
         d="M 0,600 H 600 V 0 H 0 Z"
         id="path14" />
    </clipPath>
  </defs>
  <sodipodi:namedview
     id="namedview4"
     pagecolor="#ffffff"
     bordercolor="#000000"
     borderopacity="0.25"
     inkscape:showpageshadow="2"
     inkscape:pageopacity="0.0"
     inkscape:pagecheckerboard="0"
     inkscape:deskcolor="#d1d1d1" />
  <g
     id="g8"
     inkscape:groupmode="layer"
     inkscape:label="delivery-truck-goods-publicdomainvectors.org"
     transform="matrix(1.3333333,0,0,-1.3333333,0,800)">
    <g
       id="g10">
      <g
         id="g12"
         clip-path="url(#clipPath16)">
        <path
           d="m 216.15,23.41 c 0,0.655 -0.094,1.22 -0.289,1.685 -0.188,0.47 -0.454,0.831 -0.796,1.087 -0.339,0.249 -0.712,0.376 -1.127,0.376 -0.654,0 -1.207,-0.276 -1.657,-0.81 -0.451,-0.544 -0.676,-1.333 -0.676,-2.382 0,-0.987 0.225,-1.754 0.669,-2.297 0.449,-0.548 1.005,-0.827 1.664,-0.827 0.395,0 0.762,0.12 1.1,0.363 0.333,0.239 0.604,0.596 0.807,1.072 0.205,0.481 0.305,1.057 0.305,1.733 m -4.655,3.611 v -0.298 c 0.445,0.573 0.909,1 1.39,1.265 0.482,0.271 1.03,0.408 1.639,0.408 0.73,0 1.403,-0.2 2.018,-0.593 0.614,-0.393 1.099,-0.965 1.458,-1.724 0.356,-0.759 0.533,-1.652 0.533,-2.688 0,-0.762 -0.1,-1.469 -0.307,-2.1 -0.205,-0.641 -0.488,-1.179 -0.849,-1.611 -0.359,-0.433 -0.786,-0.768 -1.273,-0.997 -0.493,-0.237 -1.02,-0.352 -1.58,-0.352 -0.682,0 -1.252,0.141 -1.713,0.426 -0.464,0.284 -0.9,0.699 -1.316,1.252 V 16.29 c 0,-1.093 -0.381,-1.635 -1.141,-1.635 -0.446,0 -0.743,0.138 -0.885,0.419 -0.146,0.282 -0.217,0.693 -0.217,1.232 v 10.699 c 0,0.472 0.095,0.826 0.294,1.058 0.199,0.231 0.468,0.351 0.808,0.351 0.337,0 0.612,-0.12 0.823,-0.361 0.211,-0.242 0.318,-0.586 0.318,-1.032"
           style="fill:#afd1e6;fill-opacity:1;fill-rule:nonzero;stroke:none"
           id="path18" />
        <path
           d="m 226.613,19.732 v 0.314 c -0.287,-0.375 -0.585,-0.688 -0.9,-0.94 -0.313,-0.259 -0.654,-0.447 -1.024,-0.57 -0.374,-0.122 -0.797,-0.184 -1.272,-0.184 -0.573,0 -1.087,0.125 -1.543,0.37 -0.457,0.248 -0.808,0.591 -1.057,1.025 -0.297,0.528 -0.444,1.285 -0.444,2.268 v 4.914 c 0,0.492 0.107,0.865 0.323,1.108 0.214,0.245 0.497,0.37 0.851,0.37 0.36,0 0.65,-0.125 0.871,-0.375 0.219,-0.248 0.33,-0.618 0.33,-1.103 v -3.971 c 0,-0.572 0.046,-1.055 0.135,-1.442 0.097,-0.394 0.262,-0.7 0.507,-0.922 0.236,-0.22 0.563,-0.328 0.974,-0.328 0.404,0 0.782,0.125 1.131,0.372 0.358,0.246 0.616,0.569 0.777,0.967 0.135,0.354 0.2,1.121 0.2,2.308 v 3.016 c 0,0.485 0.11,0.855 0.331,1.103 0.219,0.25 0.505,0.375 0.859,0.375 0.355,0 0.639,-0.125 0.852,-0.37 0.215,-0.243 0.32,-0.616 0.32,-1.108 v -7.182 c 0,-0.472 -0.1,-0.827 -0.308,-1.06 -0.203,-0.239 -0.467,-0.354 -0.794,-0.354 -0.323,0 -0.591,0.125 -0.803,0.365 -0.211,0.248 -0.316,0.588 -0.316,1.034"
           style="fill:#afd1e6;fill-opacity:1;fill-rule:nonzero;stroke:none"
           id="path20" />
        <path
           d="m 233.501,23.312 c 0,-0.987 0.215,-1.742 0.645,-2.274 0.434,-0.527 1,-0.796 1.704,-0.796 0.598,0 1.11,0.274 1.546,0.815 0.433,0.542 0.647,1.314 0.647,2.326 0,0.66 -0.089,1.221 -0.269,1.691 -0.181,0.475 -0.438,0.839 -0.765,1.095 -0.335,0.257 -0.717,0.389 -1.159,0.389 -0.456,0 -0.854,-0.132 -1.209,-0.389 -0.356,-0.256 -0.633,-0.63 -0.837,-1.117 -0.202,-0.484 -0.303,-1.063 -0.303,-1.74 m -0.113,7.368 v -3.788 c 0.441,0.488 0.9,0.855 1.363,1.118 0.464,0.256 1.041,0.386 1.725,0.386 0.788,0 1.478,-0.2 2.074,-0.585 0.593,-0.397 1.057,-0.959 1.383,-1.7 0.33,-0.742 0.492,-1.62 0.492,-2.637 0,-0.753 -0.091,-1.441 -0.271,-2.07 -0.185,-0.625 -0.448,-1.166 -0.796,-1.63 -0.351,-0.458 -0.773,-0.809 -1.268,-1.069 -0.497,-0.247 -1.044,-0.374 -1.64,-0.374 -0.364,0 -0.709,0.046 -1.033,0.137 -0.323,0.09 -0.597,0.208 -0.82,0.36 -0.228,0.142 -0.421,0.299 -0.58,0.453 -0.161,0.16 -0.368,0.394 -0.629,0.709 v -0.243 c 0,-0.468 -0.109,-0.819 -0.325,-1.06 -0.213,-0.239 -0.488,-0.356 -0.815,-0.356 -0.339,0 -0.604,0.117 -0.807,0.356 -0.199,0.246 -0.298,0.594 -0.298,1.06 v 10.824 c 0,0.499 0.097,0.879 0.292,1.136 0.193,0.26 0.462,0.387 0.813,0.387 0.362,0 0.646,-0.123 0.841,-0.37 0.199,-0.244 0.299,-0.59 0.299,-1.044"
           style="fill:#afd1e6;fill-opacity:1;fill-rule:nonzero;stroke:none"
           id="path22" />
        <path
           d="m 242.101,19.84 v 10.747 c 0,0.498 0.106,0.871 0.316,1.127 0.214,0.253 0.499,0.38 0.858,0.38 0.36,0 0.649,-0.125 0.871,-0.377 0.216,-0.25 0.329,-0.63 0.329,-1.13 V 19.84 c 0,-0.503 -0.114,-0.882 -0.335,-1.135 -0.222,-0.247 -0.512,-0.374 -0.865,-0.374 -0.348,0 -0.628,0.13 -0.847,0.391 -0.219,0.261 -0.327,0.632 -0.327,1.118"
           style="fill:#afd1e6;fill-opacity:1;fill-rule:nonzero;stroke:none"
           id="path24" />
        <path
           d="M 249.303,26.998 V 19.84 c 0,-0.5 -0.116,-0.875 -0.338,-1.129 -0.227,-0.25 -0.516,-0.38 -0.861,-0.38 -0.35,0 -0.632,0.13 -0.849,0.389 -0.216,0.263 -0.327,0.634 -0.327,1.12 v 7.089 c 0,0.485 0.111,0.855 0.327,1.103 0.217,0.25 0.499,0.375 0.849,0.375 0.345,0 0.634,-0.125 0.861,-0.375 0.222,-0.248 0.338,-0.592 0.338,-1.034 m -1.176,2.564 c -0.329,0 -0.611,0.104 -0.85,0.322 -0.229,0.21 -0.349,0.513 -0.349,0.9 0,0.35 0.12,0.636 0.362,0.867 0.238,0.228 0.518,0.335 0.837,0.335 0.308,0 0.582,-0.1 0.819,-0.304 0.236,-0.205 0.357,-0.509 0.357,-0.898 0,-0.384 -0.118,-0.68 -0.348,-0.893 -0.233,-0.216 -0.507,-0.329 -0.828,-0.329"
           style="fill:#afd1e6;fill-opacity:1;fill-rule:nonzero;stroke:none"
           id="path26" />
        <path
           d="m 260.262,21.399 c 0,-0.307 -0.087,-0.638 -0.262,-0.988 -0.181,-0.351 -0.449,-0.684 -0.813,-1.002 -0.361,-0.317 -0.818,-0.574 -1.368,-0.765 -0.55,-0.198 -1.173,-0.292 -1.861,-0.292 -1.468,0 -2.613,0.446 -3.437,1.337 -0.823,0.894 -1.235,2.087 -1.235,3.589 0,1.016 0.188,1.918 0.563,2.697 0.377,0.777 0.926,1.384 1.636,1.809 0.712,0.429 1.566,0.642 2.556,0.642 0.617,0 1.182,-0.096 1.695,-0.28 0.514,-0.19 0.948,-0.433 1.303,-0.727 0.357,-0.297 0.629,-0.613 0.82,-0.949 0.191,-0.335 0.281,-0.649 0.281,-0.94 0,-0.293 -0.107,-0.543 -0.316,-0.752 -0.214,-0.206 -0.468,-0.309 -0.77,-0.309 -0.199,0 -0.362,0.057 -0.493,0.163 -0.128,0.102 -0.277,0.269 -0.439,0.51 -0.291,0.458 -0.593,0.805 -0.91,1.04 -0.316,0.228 -0.718,0.346 -1.201,0.346 -0.705,0 -1.272,-0.29 -1.7,-0.861 -0.429,-0.576 -0.642,-1.356 -0.642,-2.35 0,-0.464 0.056,-0.897 0.165,-1.286 0.11,-0.391 0.271,-0.721 0.477,-0.999 0.21,-0.276 0.46,-0.484 0.759,-0.625 0.295,-0.144 0.62,-0.216 0.971,-0.216 0.479,0 0.884,0.114 1.223,0.345 0.341,0.233 0.641,0.583 0.9,1.051 0.148,0.284 0.303,0.5 0.472,0.66 0.169,0.157 0.375,0.232 0.618,0.232 0.289,0 0.53,-0.112 0.723,-0.341 0.188,-0.235 0.285,-0.478 0.285,-0.739"
           style="fill:#afd1e6;fill-opacity:1;fill-rule:nonzero;stroke:none"
           id="path28" />
        <path
           d="m 264.174,23.383 c 0,-0.671 0.1,-1.24 0.3,-1.715 0.2,-0.473 0.471,-0.824 0.818,-1.063 0.351,-0.243 0.73,-0.363 1.138,-0.363 0.42,0 0.801,0.116 1.145,0.341 0.345,0.229 0.619,0.577 0.828,1.046 0.205,0.468 0.306,1.055 0.306,1.754 0,0.664 -0.101,1.228 -0.306,1.705 -0.209,0.477 -0.485,0.838 -0.836,1.094 -0.351,0.249 -0.734,0.376 -1.15,0.376 -0.434,0 -0.822,-0.132 -1.167,-0.389 -0.338,-0.256 -0.606,-0.627 -0.793,-1.108 -0.188,-0.484 -0.283,-1.037 -0.283,-1.678 m 4.666,-3.636 v 0.243 c -0.317,-0.382 -0.632,-0.69 -0.945,-0.927 -0.307,-0.242 -0.645,-0.422 -1.007,-0.547 -0.36,-0.12 -0.759,-0.185 -1.186,-0.185 -0.567,0 -1.096,0.127 -1.578,0.374 -0.483,0.26 -0.903,0.613 -1.255,1.079 -0.354,0.465 -0.622,1.014 -0.806,1.646 -0.185,0.627 -0.274,1.307 -0.274,2.044 0,1.546 0.362,2.758 1.086,3.624 0.727,0.865 1.68,1.298 2.862,1.298 0.684,0 1.263,-0.125 1.73,-0.375 0.469,-0.241 0.928,-0.619 1.373,-1.129 v 3.659 c 0,0.509 0.098,0.892 0.293,1.152 0.194,0.261 0.468,0.391 0.828,0.391 0.36,0 0.635,-0.12 0.832,-0.357 0.195,-0.238 0.294,-0.592 0.294,-1.057 V 19.747 c 0,-0.472 -0.106,-0.827 -0.315,-1.06 -0.209,-0.239 -0.479,-0.356 -0.811,-0.356 -0.32,0 -0.591,0.122 -0.804,0.367 -0.211,0.243 -0.317,0.591 -0.317,1.049"
           style="fill:#afd1e6;fill-opacity:1;fill-rule:nonzero;stroke:none"
           id="path30" />
        <path
           d="m 279.976,23.364 c 0,1.007 -0.215,1.796 -0.642,2.359 -0.425,0.559 -1,0.844 -1.716,0.844 -0.467,0 -0.873,-0.128 -1.229,-0.378 -0.351,-0.253 -0.625,-0.624 -0.815,-1.115 -0.193,-0.485 -0.288,-1.054 -0.288,-1.71 0,-0.648 0.095,-1.213 0.283,-1.696 0.188,-0.483 0.458,-0.855 0.81,-1.113 0.348,-0.255 0.766,-0.382 1.239,-0.382 0.716,0 1.291,0.28 1.716,0.847 0.427,0.562 0.642,1.347 0.642,2.344 m 2.382,0 c 0,-0.735 -0.11,-1.416 -0.33,-2.044 -0.221,-0.617 -0.538,-1.155 -0.955,-1.603 -0.419,-0.449 -0.918,-0.784 -1.498,-1.03 -0.58,-0.239 -1.237,-0.356 -1.957,-0.356 -0.719,0 -1.365,0.117 -1.94,0.363 -0.574,0.241 -1.071,0.587 -1.493,1.038 -0.419,0.453 -0.737,0.982 -0.958,1.595 -0.217,0.619 -0.323,1.294 -0.323,2.041 0,0.75 0.11,1.436 0.329,2.058 0.222,0.625 0.536,1.155 0.947,1.6 0.413,0.441 0.91,0.782 1.498,1.02 0.588,0.238 1.232,0.361 1.94,0.361 0.719,0 1.373,-0.123 1.957,-0.365 0.584,-0.241 1.086,-0.589 1.504,-1.037 0.418,-0.447 0.735,-0.982 0.95,-1.6 0.222,-0.615 0.329,-1.298 0.329,-2.041"
           style="fill:#afd1e6;fill-opacity:1;fill-rule:nonzero;stroke:none"
           id="path32" />
        <path
           d="m 292.387,25.41 c -0.177,-0.419 -0.262,-1.157 -0.262,-2.222 v -3.292 c 0,-0.519 -0.112,-0.913 -0.341,-1.174 -0.225,-0.261 -0.526,-0.391 -0.897,-0.391 -0.357,0 -0.647,0.13 -0.869,0.391 -0.224,0.261 -0.334,0.655 -0.334,1.174 v 3.952 c 0,0.621 -0.023,1.104 -0.064,1.454 -0.041,0.342 -0.151,0.627 -0.329,0.848 -0.177,0.222 -0.464,0.333 -0.851,0.333 -0.775,0 -1.285,-0.279 -1.535,-0.839 -0.247,-0.556 -0.367,-1.356 -0.367,-2.398 v -3.35 c 0,-0.517 -0.114,-0.909 -0.334,-1.167 -0.225,-0.268 -0.52,-0.398 -0.881,-0.398 -0.362,0 -0.659,0.13 -0.886,0.398 -0.23,0.258 -0.341,0.65 -0.341,1.164 v 7.093 c 0,0.467 0.099,0.822 0.303,1.062 0.209,0.241 0.478,0.366 0.816,0.366 0.325,0 0.596,-0.113 0.813,-0.34 0.218,-0.227 0.326,-0.54 0.326,-0.94 v -0.236 c 0.41,0.516 0.853,0.894 1.32,1.134 0.469,0.241 0.996,0.364 1.567,0.364 0.596,0 1.105,-0.125 1.536,-0.375 0.431,-0.246 0.782,-0.623 1.059,-1.123 0.401,0.504 0.831,0.886 1.289,1.129 0.46,0.246 0.965,0.369 1.521,0.369 0.653,0 1.211,-0.13 1.679,-0.401 0.471,-0.266 0.821,-0.645 1.053,-1.143 0.205,-0.449 0.304,-1.153 0.304,-2.118 v -4.838 c 0,-0.519 -0.112,-0.913 -0.336,-1.174 -0.23,-0.261 -0.526,-0.391 -0.898,-0.391 -0.36,0 -0.655,0.13 -0.881,0.398 -0.233,0.258 -0.348,0.65 -0.348,1.167 v 4.169 c 0,0.533 -0.021,0.958 -0.064,1.28 -0.043,0.325 -0.16,0.591 -0.354,0.808 -0.189,0.219 -0.481,0.33 -0.867,0.33 -0.312,0 -0.611,-0.098 -0.889,-0.288 -0.286,-0.197 -0.5,-0.457 -0.658,-0.785"
           style="fill:#afd1e6;fill-opacity:1;fill-rule:nonzero;stroke:none"
           id="path34" />
        <path
           d="m 305.834,23.317 c -0.35,-0.135 -0.855,-0.274 -1.52,-0.424 -0.664,-0.149 -1.125,-0.255 -1.38,-0.328 -0.254,-0.071 -0.498,-0.205 -0.729,-0.407 -0.234,-0.208 -0.35,-0.49 -0.35,-0.853 0,-0.378 0.137,-0.697 0.411,-0.958 0.273,-0.267 0.629,-0.397 1.07,-0.397 0.469,0 0.904,0.11 1.301,0.325 0.398,0.212 0.689,0.494 0.873,0.83 0.215,0.375 0.324,0.992 0.324,1.859 z m 0.156,-3.59 c -0.576,-0.466 -1.131,-0.815 -1.668,-1.044 -0.535,-0.237 -1.136,-0.352 -1.802,-0.352 -0.612,0 -1.145,0.127 -1.606,0.374 -0.463,0.253 -0.818,0.595 -1.068,1.027 -0.248,0.429 -0.375,0.892 -0.375,1.396 0,0.679 0.211,1.255 0.621,1.734 0.409,0.474 0.974,0.796 1.693,0.961 0.151,0.036 0.528,0.115 1.123,0.242 0.6,0.13 1.11,0.246 1.539,0.35 0.424,0.105 0.889,0.233 1.387,0.384 -0.031,0.657 -0.156,1.137 -0.377,1.447 -0.225,0.303 -0.691,0.453 -1.391,0.453 -0.603,0 -1.056,-0.085 -1.365,-0.261 -0.303,-0.173 -0.564,-0.44 -0.779,-0.794 -0.219,-0.35 -0.371,-0.581 -0.461,-0.694 -0.092,-0.113 -0.285,-0.164 -0.578,-0.164 -0.269,0 -0.498,0.087 -0.689,0.264 -0.197,0.179 -0.295,0.406 -0.295,0.688 0,0.436 0.149,0.862 0.444,1.267 0.296,0.414 0.757,0.752 1.384,1.022 0.625,0.267 1.406,0.399 2.339,0.399 1.043,0 1.866,-0.132 2.465,-0.389 0.596,-0.253 1.016,-0.657 1.262,-1.22 0.248,-0.552 0.373,-1.294 0.373,-2.213 0,-0.58 0,-1.078 -0.006,-1.48 -0.006,-0.408 -0.006,-0.859 -0.014,-1.354 0,-0.465 0.075,-0.954 0.223,-1.456 0.145,-0.504 0.219,-0.832 0.219,-0.974 0,-0.255 -0.117,-0.488 -0.344,-0.696 -0.224,-0.207 -0.484,-0.313 -0.775,-0.313 -0.244,0 -0.483,0.117 -0.725,0.356 -0.234,0.241 -0.488,0.588 -0.754,1.04"
           style="fill:#afd1e6;fill-opacity:1;fill-rule:nonzero;stroke:none"
           id="path36" />
        <path
           d="M 312.951,26.998 V 19.84 c 0,-0.5 -0.113,-0.875 -0.338,-1.129 -0.226,-0.25 -0.511,-0.38 -0.859,-0.38 -0.348,0 -0.635,0.13 -0.85,0.389 -0.218,0.263 -0.326,0.634 -0.326,1.12 v 7.089 c 0,0.485 0.108,0.855 0.326,1.103 0.215,0.25 0.502,0.375 0.85,0.375 0.348,0 0.633,-0.125 0.859,-0.375 0.225,-0.248 0.338,-0.592 0.338,-1.034 m -1.174,2.564 c -0.328,0 -0.609,0.104 -0.845,0.322 -0.235,0.21 -0.354,0.513 -0.354,0.9 0,0.35 0.121,0.636 0.363,0.867 0.239,0.228 0.52,0.335 0.836,0.335 0.307,0 0.582,-0.1 0.821,-0.304 0.234,-0.205 0.353,-0.509 0.353,-0.898 0,-0.384 -0.115,-0.68 -0.346,-0.893 -0.234,-0.216 -0.509,-0.329 -0.828,-0.329"
           style="fill:#afd1e6;fill-opacity:1;fill-rule:nonzero;stroke:none"
           id="path38" />
        <path
           d="m 317.564,27.034 v -0.296 c 0.415,0.573 0.874,0.995 1.366,1.264 0.498,0.269 1.066,0.405 1.715,0.405 0.623,0 1.183,-0.141 1.679,-0.43 0.489,-0.283 0.86,-0.681 1.102,-1.202 0.156,-0.305 0.256,-0.634 0.304,-0.983 0.043,-0.35 0.071,-0.797 0.071,-1.343 V 19.84 c 0,-0.5 -0.113,-0.875 -0.328,-1.129 -0.217,-0.25 -0.502,-0.38 -0.848,-0.38 -0.352,0 -0.641,0.13 -0.854,0.391 -0.222,0.261 -0.335,0.632 -0.335,1.118 v 4.126 c 0,0.821 -0.106,1.444 -0.323,1.877 -0.222,0.432 -0.656,0.65 -1.306,0.65 -0.422,0 -0.807,-0.132 -1.157,-0.397 -0.347,-0.26 -0.601,-0.623 -0.763,-1.084 -0.116,-0.368 -0.176,-1.057 -0.176,-2.074 V 19.84 c 0,-0.503 -0.111,-0.882 -0.336,-1.135 -0.225,-0.247 -0.512,-0.374 -0.863,-0.374 -0.342,0 -0.625,0.13 -0.844,0.389 -0.223,0.263 -0.332,0.634 -0.332,1.12 v 7.158 c 0,0.474 0.098,0.823 0.297,1.058 0.195,0.233 0.469,0.351 0.808,0.351 0.207,0 0.399,-0.055 0.563,-0.156 0.174,-0.101 0.305,-0.26 0.406,-0.459 0.1,-0.211 0.154,-0.461 0.154,-0.758"
           style="fill:#afd1e6;fill-opacity:1;fill-rule:nonzero;stroke:none"
           id="path40" />
        <path
           d="m 327.611,26.863 1.918,-5.626 2.071,5.872 c 0.166,0.472 0.324,0.803 0.482,1.002 0.16,0.195 0.393,0.296 0.711,0.296 0.303,0 0.559,-0.106 0.775,-0.322 0.207,-0.21 0.315,-0.451 0.315,-0.735 0,-0.109 -0.022,-0.234 -0.059,-0.374 -0.035,-0.15 -0.078,-0.287 -0.129,-0.415 -0.05,-0.123 -0.101,-0.272 -0.17,-0.433 l -2.279,-5.899 c -0.064,-0.169 -0.148,-0.387 -0.248,-0.648 -0.103,-0.258 -0.217,-0.477 -0.34,-0.669 -0.127,-0.182 -0.279,-0.322 -0.459,-0.426 -0.185,-0.102 -0.408,-0.155 -0.67,-0.155 -0.336,0 -0.603,0.079 -0.804,0.238 -0.202,0.161 -0.35,0.335 -0.444,0.53 -0.093,0.187 -0.258,0.565 -0.482,1.13 l -2.264,5.834 c -0.053,0.145 -0.107,0.291 -0.164,0.435 -0.053,0.146 -0.096,0.291 -0.137,0.444 -0.035,0.156 -0.056,0.285 -0.056,0.389 0,0.173 0.049,0.34 0.15,0.507 0.098,0.167 0.236,0.306 0.408,0.409 0.176,0.105 0.362,0.16 0.567,0.16 0.392,0 0.664,-0.118 0.812,-0.359 0.149,-0.234 0.315,-0.629 0.496,-1.185"
           style="fill:#afd1e6;fill-opacity:1;fill-rule:nonzero;stroke:none"
           id="path42" />
        <path
           d="m 337.324,24.172 h 4.305 c -0.057,0.845 -0.274,1.479 -0.656,1.897 -0.381,0.419 -0.881,0.63 -1.502,0.63 -0.588,0 -1.076,-0.213 -1.453,-0.638 -0.381,-0.424 -0.608,-1.056 -0.694,-1.889 m 4.647,-1.409 h -4.647 c 0.002,-0.567 0.115,-1.06 0.322,-1.493 0.217,-0.426 0.497,-0.749 0.846,-0.97 0.352,-0.22 0.74,-0.325 1.164,-0.325 0.283,0 0.545,0.034 0.778,0.1 0.234,0.074 0.462,0.182 0.685,0.329 0.217,0.149 0.418,0.304 0.606,0.48 0.183,0.167 0.431,0.394 0.72,0.686 0.125,0.115 0.299,0.165 0.524,0.165 0.246,0 0.441,-0.067 0.592,-0.209 0.152,-0.14 0.224,-0.335 0.224,-0.588 0,-0.224 -0.082,-0.487 -0.252,-0.789 -0.168,-0.295 -0.416,-0.585 -0.762,-0.863 -0.339,-0.273 -0.765,-0.499 -1.279,-0.684 -0.51,-0.181 -1.097,-0.271 -1.769,-0.271 -1.524,0 -2.711,0.456 -3.555,1.36 -0.844,0.913 -1.268,2.141 -1.268,3.692 0,0.741 0.108,1.416 0.313,2.041 0.209,0.627 0.512,1.164 0.912,1.61 0.4,0.451 0.891,0.797 1.479,1.032 0.587,0.24 1.234,0.36 1.951,0.36 0.922,0 1.718,-0.204 2.383,-0.615 0.666,-0.409 1.162,-0.933 1.492,-1.579 0.332,-0.651 0.496,-1.308 0.496,-1.984 0,-0.62 -0.166,-1.024 -0.512,-1.207 -0.346,-0.188 -0.822,-0.278 -1.443,-0.278"
           style="fill:#afd1e6;fill-opacity:1;fill-rule:nonzero;stroke:none"
           id="path44" />
        <path
           d="m 354.445,21.399 c 0,-0.307 -0.088,-0.638 -0.267,-0.988 -0.178,-0.351 -0.444,-0.684 -0.809,-1.002 -0.361,-0.317 -0.82,-0.574 -1.373,-0.765 -0.549,-0.198 -1.172,-0.292 -1.857,-0.292 -1.471,0 -2.616,0.446 -3.438,1.337 -0.82,0.894 -1.236,2.087 -1.236,3.589 0,1.016 0.187,1.918 0.568,2.697 0.377,0.777 0.918,1.384 1.633,1.809 0.711,0.429 1.566,0.642 2.559,0.642 0.615,0 1.175,-0.096 1.693,-0.28 0.512,-0.19 0.943,-0.433 1.305,-0.727 0.357,-0.297 0.627,-0.613 0.818,-0.949 0.186,-0.335 0.281,-0.649 0.281,-0.94 0,-0.293 -0.103,-0.543 -0.322,-0.752 -0.209,-0.206 -0.465,-0.309 -0.766,-0.309 -0.199,0 -0.361,0.057 -0.488,0.163 -0.135,0.102 -0.279,0.269 -0.445,0.51 -0.289,0.458 -0.59,0.805 -0.906,1.04 -0.317,0.228 -0.719,0.346 -1.207,0.346 -0.698,0 -1.266,-0.29 -1.694,-0.861 -0.431,-0.576 -0.644,-1.356 -0.644,-2.35 0,-0.464 0.058,-0.897 0.164,-1.286 0.111,-0.391 0.271,-0.721 0.48,-0.999 0.209,-0.276 0.463,-0.484 0.758,-0.625 0.291,-0.144 0.617,-0.216 0.973,-0.216 0.474,0 0.884,0.114 1.222,0.345 0.338,0.233 0.641,0.583 0.903,1.051 0.144,0.284 0.298,0.5 0.468,0.66 0.166,0.157 0.371,0.232 0.618,0.232 0.287,0 0.531,-0.112 0.716,-0.341 0.196,-0.235 0.293,-0.478 0.293,-0.739"
           style="fill:#afd1e6;fill-opacity:1;fill-rule:nonzero;stroke:none"
           id="path46" />
        <path
           d="m 356.65,28.196 h 0.262 v 1.492 c 0,0.395 0.01,0.712 0.031,0.938 0.02,0.228 0.073,0.419 0.17,0.584 0.09,0.167 0.225,0.308 0.401,0.414 0.172,0.105 0.365,0.154 0.58,0.154 0.301,0 0.574,-0.117 0.816,-0.35 0.16,-0.16 0.266,-0.35 0.309,-0.574 0.045,-0.228 0.064,-0.554 0.064,-0.97 v -1.688 h 0.873 c 0.336,0 0.594,-0.083 0.77,-0.25 0.179,-0.166 0.265,-0.377 0.265,-0.637 0,-0.333 -0.125,-0.571 -0.38,-0.701 -0.25,-0.13 -0.612,-0.198 -1.082,-0.198 h -0.446 v -4.564 c 0,-0.389 0.014,-0.687 0.039,-0.898 0.03,-0.211 0.104,-0.38 0.215,-0.507 0.109,-0.131 0.293,-0.199 0.551,-0.199 0.139,0 0.326,0.026 0.566,0.079 0.233,0.051 0.418,0.076 0.555,0.076 0.189,0 0.367,-0.083 0.518,-0.236 0.15,-0.164 0.23,-0.358 0.23,-0.597 0,-0.398 -0.205,-0.703 -0.625,-0.917 -0.422,-0.21 -1.019,-0.316 -1.801,-0.316 -0.742,0 -1.306,0.13 -1.689,0.391 -0.381,0.261 -0.635,0.618 -0.75,1.084 -0.121,0.46 -0.18,1.072 -0.18,1.841 v 4.763 h -0.316 c -0.336,0 -0.598,0.083 -0.78,0.255 -0.181,0.168 -0.269,0.382 -0.269,0.644 0,0.26 0.094,0.471 0.279,0.637 0.192,0.167 0.465,0.25 0.824,0.25"
           style="fill:#afd1e6;fill-opacity:1;fill-rule:nonzero;stroke:none"
           id="path48" />
        <path
           d="m 369.328,23.364 c 0,1.007 -0.215,1.796 -0.639,2.359 -0.429,0.559 -0.998,0.844 -1.718,0.844 -0.465,0 -0.873,-0.128 -1.227,-0.378 -0.355,-0.253 -0.627,-0.624 -0.816,-1.115 -0.192,-0.485 -0.289,-1.054 -0.289,-1.71 0,-0.648 0.097,-1.213 0.285,-1.696 0.187,-0.483 0.455,-0.855 0.806,-1.113 0.35,-0.255 0.762,-0.382 1.241,-0.382 0.72,0 1.289,0.28 1.718,0.847 0.424,0.562 0.639,1.347 0.639,2.344 m 2.383,0 c 0,-0.735 -0.109,-1.416 -0.332,-2.044 -0.219,-0.617 -0.539,-1.155 -0.955,-1.603 -0.418,-0.449 -0.918,-0.784 -1.496,-1.03 -0.58,-0.239 -1.229,-0.356 -1.957,-0.356 -0.723,0 -1.369,0.117 -1.942,0.363 -0.572,0.241 -1.072,0.587 -1.49,1.038 -0.42,0.453 -0.74,0.982 -0.955,1.595 -0.217,0.619 -0.324,1.294 -0.324,2.041 0,0.75 0.107,1.436 0.324,2.058 0.227,0.625 0.537,1.155 0.949,1.6 0.414,0.441 0.912,0.782 1.496,1.02 0.592,0.238 1.237,0.361 1.942,0.361 0.72,0 1.369,-0.123 1.957,-0.365 0.586,-0.241 1.086,-0.589 1.504,-1.037 0.414,-0.447 0.738,-0.982 0.953,-1.6 0.217,-0.615 0.326,-1.298 0.326,-2.041"
           style="fill:#afd1e6;fill-opacity:1;fill-rule:nonzero;stroke:none"
           id="path50" />
        <path
           d="M 375.941,21.903 V 19.84 c 0,-0.503 -0.113,-0.882 -0.339,-1.135 -0.227,-0.247 -0.514,-0.374 -0.864,-0.374 -0.34,0 -0.623,0.13 -0.842,0.38 -0.22,0.254 -0.328,0.629 -0.328,1.129 v 6.896 c 0,1.116 0.383,1.671 1.155,1.671 0.39,0 0.677,-0.134 0.853,-0.391 0.172,-0.259 0.264,-0.646 0.287,-1.153 0.283,0.507 0.576,0.894 0.875,1.153 0.299,0.257 0.696,0.391 1.192,0.391 0.504,0 0.984,-0.134 1.457,-0.391 0.467,-0.259 0.705,-0.606 0.705,-1.035 0,-0.302 -0.104,-0.555 -0.303,-0.749 -0.197,-0.195 -0.414,-0.296 -0.648,-0.296 -0.086,0 -0.297,0.057 -0.631,0.17 -0.334,0.112 -0.629,0.169 -0.885,0.169 -0.346,0 -0.629,-0.093 -0.848,-0.289 -0.22,-0.192 -0.392,-0.471 -0.515,-0.846 -0.121,-0.378 -0.209,-0.823 -0.252,-1.343 -0.045,-0.514 -0.069,-1.144 -0.069,-1.894"
           style="fill:#afd1e6;fill-opacity:1;fill-rule:nonzero;stroke:none"
           id="path52" />
        <path
           d="m 388.59,21.568 c 0,-0.684 -0.16,-1.268 -0.483,-1.756 -0.32,-0.489 -0.791,-0.854 -1.414,-1.109 -0.625,-0.245 -1.38,-0.372 -2.279,-0.372 -0.846,0 -1.58,0.137 -2.191,0.409 -0.608,0.273 -1.059,0.612 -1.346,1.019 -0.293,0.406 -0.441,0.816 -0.441,1.226 0,0.273 0.095,0.507 0.285,0.7 0.183,0.196 0.42,0.291 0.701,0.291 0.25,0 0.443,-0.065 0.576,-0.19 0.135,-0.133 0.258,-0.308 0.383,-0.537 0.244,-0.444 0.533,-0.773 0.877,-0.992 0.334,-0.221 0.799,-0.327 1.388,-0.327 0.473,0 0.864,0.111 1.168,0.333 0.303,0.219 0.461,0.472 0.461,0.757 0,0.437 -0.162,0.756 -0.474,0.953 -0.321,0.205 -0.838,0.394 -1.565,0.574 -0.816,0.214 -1.482,0.435 -1.996,0.667 -0.513,0.233 -0.929,0.544 -1.234,0.924 -0.307,0.377 -0.463,0.849 -0.463,1.406 0,0.498 0.143,0.968 0.428,1.405 0.283,0.445 0.707,0.796 1.259,1.061 0.553,0.263 1.221,0.397 2.006,0.397 0.614,0 1.166,-0.069 1.659,-0.201 0.488,-0.132 0.902,-0.312 1.224,-0.535 0.328,-0.225 0.58,-0.472 0.75,-0.742 0.174,-0.277 0.258,-0.542 0.258,-0.801 0,-0.285 -0.09,-0.514 -0.275,-0.702 -0.184,-0.175 -0.446,-0.268 -0.778,-0.268 -0.246,0 -0.451,0.071 -0.625,0.22 -0.168,0.143 -0.367,0.36 -0.586,0.647 -0.179,0.244 -0.39,0.439 -0.636,0.583 -0.245,0.144 -0.575,0.218 -0.991,0.218 -0.429,0 -0.789,-0.095 -1.068,-0.287 -0.285,-0.189 -0.43,-0.428 -0.43,-0.713 0,-0.261 0.106,-0.473 0.313,-0.64 0.211,-0.166 0.49,-0.304 0.845,-0.415 0.356,-0.109 0.842,-0.245 1.463,-0.4 0.737,-0.185 1.338,-0.41 1.805,-0.672 0.467,-0.258 0.82,-0.564 1.061,-0.92 0.244,-0.357 0.365,-0.759 0.365,-1.211"
           style="fill:#afd1e6;fill-opacity:1;fill-rule:nonzero;stroke:none"
           id="path54" />
        <path
           d="m 391.285,18.331 c -0.359,0 -0.67,0.117 -0.928,0.363 -0.265,0.241 -0.394,0.581 -0.394,1.014 0,0.367 0.123,0.687 0.369,0.953 0.25,0.266 0.561,0.396 0.926,0.396 0.363,0 0.676,-0.13 0.928,-0.394 0.261,-0.259 0.392,-0.583 0.392,-0.955 0,-0.429 -0.131,-0.767 -0.392,-1.01 -0.252,-0.245 -0.553,-0.367 -0.901,-0.367"
           style="fill:#afd1e6;fill-opacity:1;fill-rule:nonzero;stroke:none"
           id="path56" />
        <path
           d="m 401.785,23.364 c 0,1.007 -0.215,1.796 -0.64,2.359 -0.426,0.559 -0.997,0.844 -1.715,0.844 -0.465,0 -0.869,-0.128 -1.225,-0.378 -0.355,-0.253 -0.627,-0.624 -0.816,-1.115 -0.19,-0.485 -0.287,-1.054 -0.287,-1.71 0,-0.648 0.091,-1.213 0.279,-1.696 0.193,-0.483 0.461,-0.855 0.812,-1.113 0.35,-0.255 0.762,-0.382 1.237,-0.382 0.718,0 1.289,0.28 1.715,0.847 0.425,0.562 0.64,1.347 0.64,2.344 m 2.387,0 c 0,-0.735 -0.109,-1.416 -0.334,-2.044 -0.221,-0.617 -0.537,-1.155 -0.955,-1.603 -0.42,-0.449 -0.912,-0.784 -1.496,-1.03 -0.578,-0.239 -1.231,-0.356 -1.957,-0.356 -0.719,0 -1.366,0.117 -1.94,0.363 -0.574,0.241 -1.068,0.587 -1.488,1.038 -0.426,0.453 -0.742,0.982 -0.963,1.595 -0.213,0.619 -0.322,1.294 -0.322,2.041 0,0.75 0.109,1.436 0.33,2.058 0.224,0.625 0.535,1.155 0.945,1.6 0.412,0.441 0.912,0.782 1.498,1.02 0.586,0.238 1.229,0.361 1.94,0.361 0.718,0 1.371,-0.123 1.957,-0.365 0.588,-0.241 1.088,-0.589 1.506,-1.037 0.416,-0.447 0.732,-0.982 0.953,-1.6 0.217,-0.615 0.326,-1.298 0.326,-2.041"
           style="fill:#afd1e6;fill-opacity:1;fill-rule:nonzero;stroke:none"
           id="path58" />
        <path
           d="M 408.4,21.903 V 19.84 c 0,-0.503 -0.113,-0.882 -0.337,-1.135 -0.225,-0.247 -0.514,-0.374 -0.86,-0.374 -0.348,0 -0.625,0.13 -0.848,0.38 -0.22,0.254 -0.33,0.629 -0.33,1.129 v 6.896 c 0,1.116 0.391,1.671 1.159,1.671 0.394,0 0.675,-0.134 0.849,-0.391 0.172,-0.259 0.274,-0.646 0.293,-1.153 0.279,0.507 0.57,0.894 0.869,1.153 0.299,0.257 0.7,0.391 1.194,0.391 0.506,0 0.99,-0.134 1.455,-0.391 0.47,-0.259 0.707,-0.606 0.707,-1.035 0,-0.302 -0.102,-0.555 -0.299,-0.749 -0.203,-0.195 -0.416,-0.296 -0.652,-0.296 -0.084,0 -0.293,0.057 -0.627,0.17 -0.334,0.112 -0.629,0.169 -0.887,0.169 -0.346,0 -0.627,-0.093 -0.854,-0.289 -0.216,-0.192 -0.388,-0.471 -0.511,-0.846 -0.119,-0.378 -0.205,-0.823 -0.25,-1.343 -0.045,-0.514 -0.071,-1.144 -0.071,-1.894"
           style="fill:#afd1e6;fill-opacity:1;fill-rule:nonzero;stroke:none"
           id="path60" />
        <path
           d="m 415.256,23.449 c 0,-1.002 0.211,-1.762 0.633,-2.279 0.418,-0.512 0.965,-0.773 1.627,-0.773 0.392,0 0.769,0.116 1.119,0.336 0.351,0.222 0.636,0.553 0.859,0.997 0.221,0.448 0.328,0.986 0.328,1.62 0,1.009 -0.215,1.796 -0.64,2.358 -0.424,0.567 -0.987,0.85 -1.68,0.85 -0.676,0 -1.223,-0.276 -1.629,-0.81 -0.412,-0.542 -0.617,-1.305 -0.617,-2.299 m 6.883,3.144 v -7.202 c 0,-0.825 -0.09,-1.533 -0.254,-2.122 -0.168,-0.597 -0.44,-1.086 -0.809,-1.473 -0.371,-0.388 -0.859,-0.673 -1.455,-0.862 -0.601,-0.183 -1.35,-0.279 -2.24,-0.279 -0.82,0 -1.553,0.116 -2.193,0.355 -0.645,0.245 -1.141,0.549 -1.489,0.929 -0.347,0.375 -0.523,0.765 -0.523,1.167 0,0.303 0.097,0.549 0.299,0.739 0.195,0.194 0.433,0.289 0.711,0.289 0.349,0 0.65,-0.162 0.916,-0.482 0.127,-0.168 0.261,-0.331 0.394,-0.495 0.135,-0.169 0.285,-0.312 0.451,-0.428 0.166,-0.121 0.367,-0.208 0.6,-0.266 0.226,-0.058 0.496,-0.086 0.799,-0.086 0.611,0 1.093,0.091 1.429,0.269 0.34,0.176 0.579,0.426 0.717,0.747 0.131,0.32 0.217,0.662 0.231,1.03 0.029,0.371 0.045,0.956 0.06,1.768 -0.365,-0.53 -0.793,-0.937 -1.267,-1.214 -0.477,-0.279 -1.049,-0.414 -1.705,-0.414 -0.801,0 -1.497,0.207 -2.086,0.633 -0.598,0.424 -1.055,1.014 -1.373,1.781 -0.315,0.758 -0.479,1.639 -0.479,2.639 0,0.748 0.096,1.421 0.295,2.021 0.189,0.595 0.465,1.101 0.83,1.513 0.356,0.413 0.773,0.723 1.242,0.933 0.473,0.206 0.983,0.313 1.549,0.313 0.67,0 1.254,-0.137 1.746,-0.408 0.498,-0.265 0.951,-0.692 1.375,-1.265 v 0.333 c 0,0.432 0.106,0.761 0.305,1.005 0.203,0.233 0.465,0.353 0.781,0.353 0.461,0 0.766,-0.155 0.918,-0.468 0.149,-0.312 0.225,-0.765 0.225,-1.353"
           style="fill:#afd1e6;fill-opacity:1;fill-rule:nonzero;stroke:none"
           id="path62" />
        <path
           d="m 319.221,50.724 h 3.523 c -0.25,-1.9 -1.027,-3.382 -2.322,-4.449 -1.197,-1.044 -2.649,-1.559 -4.344,-1.559 -2.299,0 -4.135,0.807 -5.504,2.421 -1.301,1.533 -1.949,3.513 -1.949,5.932 0,2.48 0.645,4.462 1.932,5.962 1.281,1.494 3.099,2.246 5.445,2.246 1.746,0 3.223,-0.472 4.42,-1.41 1.271,-1.012 2.047,-2.434 2.322,-4.258 h -3.523 c -0.303,1.59 -1.276,2.382 -2.928,2.382 -2.721,0 -4.086,-1.613 -4.086,-4.84 0,-1.511 0.352,-2.746 1.051,-3.709 0.701,-0.963 1.687,-1.446 2.963,-1.446 1.896,0 2.898,0.91 3,2.728 m -13.866,2.221 c 0,-3.152 1,-5.821 2.999,-7.993 1.998,-2.176 4.441,-3.264 7.343,-3.264 2.893,0 5.34,1.088 7.336,3.264 2,2.172 2.994,4.841 2.994,7.993 0,3.151 -0.994,5.817 -2.994,7.992 -1.996,2.176 -4.443,3.263 -7.336,3.263 -2.902,0 -5.345,-1.087 -7.343,-3.263 -1.999,-2.175 -2.999,-4.841 -2.999,-7.992 m -3.576,0 c 0,4.011 1.356,7.434 4.075,10.279 2.718,2.839 6.001,4.258 9.843,4.258 3.838,0 7.116,-1.419 9.838,-4.258 2.719,-2.845 4.08,-6.268 4.08,-10.279 0,-4.013 -1.361,-7.442 -4.08,-10.28 -2.722,-2.842 -6,-4.263 -9.838,-4.263 -3.842,0 -7.125,1.421 -9.843,4.263 -2.719,2.838 -4.075,6.267 -4.075,10.28"
           style="fill:#afd1e6;fill-opacity:1;fill-rule:nonzero;stroke:none"
           id="path64" />
        <path
           d="m 307.41,43.827 2.029,-1.722 14.93,19.169 -2.029,1.72 z"
           style="fill:#afd1e6;fill-opacity:1;fill-rule:nonzero;stroke:none"
           id="path66" />
        <path
           d="m 558.362,374.411 h 23.11 v 3.748 h -23.11 z"
           style="fill:#f09870;fill-opacity:1;fill-rule:evenodd;stroke:none"
           id="path68" />
        <path
           d="m 298.658,166.929 c 162.027,0 294.177,1.124 294.177,2.5 0,1.374 -132.15,2.498 -294.177,2.498 -162.029,0 -294.181,-1.124 -294.181,-2.498 0,-1.376 132.152,-2.5 294.181,-2.5"
           style="fill:#2d2b2d;fill-opacity:1;fill-rule:evenodd;stroke:none"
           id="path70" />
        <path
           d="m 206.644,169.429 c -10.448,0 -18.917,16.618 -18.917,37.12 0,20.501 8.469,37.124 18.917,37.124 h 25.7 v -74.244 z"
           style="fill:#2d2b2d;fill-opacity:1;fill-rule:evenodd;stroke:none"
           id="path72" />
        <path
           d="m 346.656,169.429 c -10.448,0 -18.917,16.618 -18.917,37.12 0,20.501 8.469,37.124 18.917,37.124 h 25.7 v -74.244 z"
           style="fill:#2d2b2d;fill-opacity:1;fill-rule:evenodd;stroke:none"
           id="path74" />
        <path
           d="m 372.356,169.429 c 10.419,0 18.919,16.675 18.919,37.12 0,20.446 -8.5,37.124 -18.919,37.124 -10.418,0 -18.917,-16.678 -18.917,-37.124 0,-20.445 8.499,-37.12 18.917,-37.12"
           style="fill:#2d2b2d;fill-opacity:1;fill-rule:evenodd;stroke:none"
           id="path76" />
        <path
           d="m 232.344,243.673 c 10.448,0 18.919,-16.623 18.919,-37.124 0,-20.502 -8.471,-37.12 -18.919,-37.12 -10.448,0 -18.917,16.618 -18.917,37.12 0,20.501 8.469,37.124 18.917,37.124"
           style="fill:#2d2b2d;fill-opacity:1;fill-rule:evenodd;stroke:none"
           id="path78" />
        <path
           d="m 498.805,216.188 h 72.814 v 62.822 h -72.814 z"
           style="fill:#782619;fill-opacity:1;fill-rule:evenodd;stroke:none"
           id="path80" />
        <path
           d="M 425.54,216.188 H 352.722 V 279.01 H 425.54 Z"
           style="fill:#782619;fill-opacity:1;fill-rule:evenodd;stroke:none"
           id="path82" />
        <path
           d="m 366.645,169.429 c -10.453,0 -18.919,16.618 -18.919,37.12 0,20.501 8.466,37.124 18.919,37.124 h 25.7 v -74.244 z"
           style="fill:#46454b;fill-opacity:1;fill-rule:evenodd;stroke:none"
           id="path84" />
        <path
           d="M 161.492,216.188 H 355.669 V 434.639 H 161.492 Z"
           style="fill:#d64520;fill-opacity:1;fill-rule:evenodd;stroke:none"
           id="path86" />
        <path
           d="M 172.017,226.713 H 332.293 V 424.112 H 172.017 Z"
           style="fill:#2d2b2d;fill-opacity:1;fill-rule:evenodd;stroke:none"
           id="path88" />
        <path
           d="m 506.656,169.429 c -10.45,0 -18.919,16.618 -18.919,37.12 0,20.501 8.469,37.124 18.919,37.124 h 25.702 v -74.244 z"
           style="fill:#46454b;fill-opacity:1;fill-rule:evenodd;stroke:none"
           id="path90" />
        <path
           d="m 532.354,169.429 c 10.419,0 18.919,16.675 18.919,37.12 0,20.446 -8.5,37.124 -18.919,37.124 -10.417,0 -18.916,-16.678 -18.916,-37.124 0,-20.445 8.499,-37.12 18.916,-37.12"
           style="fill:#2d2b2d;fill-opacity:1;fill-rule:evenodd;stroke:none"
           id="path92" />
        <path
           d="m 494.519,412.861 h 40.335 c 9.391,0 17.386,-5.597 20.601,-14.423 l 24.111,-66.205 c 4.596,-12.613 6.619,-24.087 6.619,-37.508 v -78.537 h -28.75 c -2.574,19.61 -12.826,34.267 -25.077,34.267 -12.256,0 -22.508,-14.657 -25.079,-34.267 h -36.945 z"
           style="fill:#f09870;fill-opacity:1;fill-rule:evenodd;stroke:none"
           id="path94" />
        <path
           d="m 569.34,326.415 c -0.212,0.617 -0.432,1.235 -0.658,1.856 l -24.11,66.205 c -1.549,4.25 -5.196,6.803 -9.718,6.803 H 510.04 v -74.864 z"
           style="fill:#688bb7;fill-opacity:1;fill-rule:evenodd;stroke:none"
           id="path96" />
        <path
           d="m 555.064,365.666 -7.279,19.989 H 510.04 v -19.989 z m 8.449,-23.202 -4.548,12.494 H 510.04 v -12.494 z"
           style="fill:#90aed3;fill-opacity:1;fill-rule:evenodd;stroke:none"
           id="path98" />
        <path
           d="M 342.818,434.638 H 494.519 V 216.188 H 417.42 c -2.572,19.61 -12.822,34.267 -25.075,34.267 -12.257,0 -22.507,-14.657 -25.079,-34.267 h -24.448 z"
           style="fill:#e9541e;fill-opacity:1;fill-rule:evenodd;stroke:none"
           id="path100" />
        <path
           d="m 392.345,243.673 c 10.446,0 18.917,-16.623 18.917,-37.124 0,-20.502 -8.471,-37.12 -18.917,-37.12 -10.45,0 -18.919,16.618 -18.919,37.12 0,20.501 8.469,37.124 18.919,37.124"
           style="fill:#2d2b2d;fill-opacity:1;fill-rule:evenodd;stroke:none"
           id="path102" />
        <path
           d="m 532.354,183.834 c 6.377,0 11.578,10.203 11.578,22.715 0,12.511 -5.201,22.718 -11.578,22.718 -6.375,0 -11.574,-10.207 -11.574,-22.718 0,-12.512 5.199,-22.715 11.574,-22.715"
           style="fill:#bcb8c2;fill-opacity:1;fill-rule:evenodd;stroke:none"
           id="path104" />
        <path
           d="m 532.354,191.489 c 4.229,0 7.676,6.766 7.676,15.06 0,8.297 -3.447,15.06 -7.676,15.06 -4.226,0 -7.672,-6.763 -7.672,-15.06 0,-8.294 3.446,-15.06 7.672,-15.06"
           style="fill:#9c9aa2;fill-opacity:1;fill-rule:evenodd;stroke:none"
           id="path106" />
        <path
           d="m 392.345,229.267 c 6.39,0 11.743,-9.484 11.575,-22.718 -0.169,-13.233 -5.244,-22.966 -11.575,-22.715 -6.333,0.252 -11.577,10.169 -11.577,22.715 0,12.547 5.182,22.718 11.577,22.718"
           style="fill:#bcb8c2;fill-opacity:1;fill-rule:evenodd;stroke:none"
           id="path108" />
        <path
           d="m 392.345,221.609 c 4.238,0 7.672,-6.742 7.672,-15.06 0,-8.317 -3.434,-15.059 -7.672,-15.059 -4.241,0 -7.678,6.742 -7.678,15.059 0,8.318 3.437,15.06 7.678,15.06"
           style="fill:#9c9aa2;fill-opacity:1;fill-rule:evenodd;stroke:none"
           id="path110" />
        <path
           d="m 575.009,254.197 h 8.567 c 4.713,0 8.567,-3.854 8.567,-8.567 V 221 c 0,-4.71 -3.854,-8.565 -8.567,-8.565 h -8.567 c -4.711,0 -8.567,3.855 -8.567,8.565 v 24.63 c 0,4.713 3.856,8.567 8.567,8.567"
           style="fill:#fbccb7;fill-opacity:1;fill-rule:evenodd;stroke:none"
           id="path112" />
        <path
           d="m 172.017,380.736 h 160.276 v 43.376 H 172.017 Z"
           style="fill:#f6e2db;fill-opacity:1;fill-rule:evenodd;stroke:none"
           id="path114" />
        <path
           d="M 332.293,413.268 H 172.018 v -2.896 h 160.275 z m 0,-10.844 H 172.018 v -2.896 h 160.275 z m 0,-10.845 H 172.018 v -2.895 h 160.275 z m 0,32.533 H 172.018 v -2.896 h 160.275 z"
           style="fill:#ecc8b7;fill-opacity:1;fill-rule:evenodd;stroke:none"
           id="path116" />
        <path
           d="m 171.864,226.713 h 4.083 v 197.399 h -4.083 z"
           style="fill:#bb3921;fill-opacity:1;fill-rule:evenodd;stroke:none"
           id="path118" />
        <path
           d="m 175.948,380.736 h 7.081 v 43.376 h -7.081 z"
           style="fill:#ecc8b7;fill-opacity:1;fill-rule:evenodd;stroke:none"
           id="path120" />
        <path
           d="m 183.03,388.684 h -7.081 v 2.895 h 7.081 z m 0,10.844 h -7.081 v 2.896 h 7.081 z m 0,10.844 h -7.081 v 2.896 h 7.081 z m 0,13.74 h -7.081 v -2.896 h 7.081 z"
           style="fill:#d9ab97;fill-opacity:1;fill-rule:evenodd;stroke:none"
           id="path122" />
        <path
           d="m 188.43,226.713 h 68.315 v 82.556 H 188.43 Z"
           style="fill:#f9cc78;fill-opacity:1;fill-rule:evenodd;stroke:none"
           id="path124" />
        <path
           d="m 253.037,226.713 h 60.518 v 82.556 h -60.518 z"
           style="fill:#e1a04a;fill-opacity:1;fill-rule:evenodd;stroke:none"
           id="path126" />
        <path
           d="m 266.244,226.713 h 56.892 v 65.423 h -56.892 z"
           style="fill:#f9cc78;fill-opacity:1;fill-rule:evenodd;stroke:none"
           id="path128" />
        <path
           d="m 319.605,226.713 h 12.688 v 65.423 h -12.688 z"
           style="fill:#e1a04a;fill-opacity:1;fill-rule:evenodd;stroke:none"
           id="path130" />
        <path
           d="m 342.818,356.383 h 52.914 c 4.925,14.569 13.36,24.178 22.938,24.178 9.577,0 18.011,-9.609 22.937,-24.178 h 52.912 v -59.608 h -52.912 c -4.926,-14.568 -13.36,-24.176 -22.937,-24.176 -9.578,0 -18.013,9.608 -22.938,24.176 h -52.914 z"
           style="fill:#b13e20;fill-opacity:1;fill-rule:evenodd;stroke:none"
           id="path132" />
        <path
           d="m 494.519,216.188 h 7.311 v 196.674 h -7.311 z"
           style="fill:#e68457;fill-opacity:1;fill-rule:evenodd;stroke:none"
           id="path134" />
        <path
           d="m 557.487,333.896 c -0.17,0.495 -0.344,0.99 -0.525,1.485 l -19.292,52.973 c -1.239,3.401 -4.157,5.444 -7.776,5.444 H 510.04 v -59.902 z"
           style="fill:#90aed3;fill-opacity:1;fill-rule:evenodd;stroke:none"
           id="path136" />
        <path
           d="m 545.933,365.666 -7.281,19.989 H 510.04 v -19.989 z m 8.449,-23.202 -4.55,12.494 H 510.04 v -12.494 z"
           style="fill:#a8c4e4;fill-opacity:1;fill-rule:evenodd;stroke:none"
           id="path138" />
        <path
           d="m 580.199,385.12 h 5.982 c 4.97,0 9.036,-4.067 9.036,-9.036 v -17.445 c 0,-4.971 -4.066,-9.036 -9.036,-9.036 h -5.982 c -1.681,0 -3.053,1.374 -3.053,3.054 v 29.408 c 0,1.68 1.372,3.055 3.053,3.055"
           style="fill:#f09870;fill-opacity:1;fill-rule:evenodd;stroke:none"
           id="path140" />
        <path
           d="m 580.453,382.799 h 5.982 c 0.7,0 1.273,-0.571 1.273,-1.272 v -28.422 c 0,-0.7 -0.573,-1.271 -1.273,-1.271 h -5.982 c -0.7,0 -1.271,0.571 -1.271,1.271 v 28.422 c 0,0.701 0.571,1.272 1.271,1.272"
           style="fill:#688bb7;fill-opacity:1;fill-rule:evenodd;stroke:none"
           id="path142" />
        <path
           d="m 587.708,364.595 h -8.526 v -3.301 h 8.526 z m -8.526,11.957 h 8.526 v -7.406 h -8.526 z"
           style="fill:#90aed3;fill-opacity:1;fill-rule:evenodd;stroke:none"
           id="path144" />
        <path
           d="m 211.325,297.845 h 11.243 v 11.424 h -11.243 z"
           style="fill:#987b51;fill-opacity:1;fill-rule:evenodd;stroke:none"
           id="path146" />
        <path
           d="m 289.071,283.123 h 11.242 v 9.013 h -11.242 z"
           style="fill:#987b51;fill-opacity:1;fill-rule:evenodd;stroke:none"
           id="path148" />
        <path
           d="m 23.971,169.429 h 68.314 v 82.554 H 23.971 Z"
           style="fill:#f3c266;fill-opacity:1;fill-rule:evenodd;stroke:none"
           id="path150" />
        <path
           d="m 88.578,169.429 h 60.519 v 82.554 H 88.578 Z"
           style="fill:#d79540;fill-opacity:1;fill-rule:evenodd;stroke:none"
           id="path152" />
        <path
           d="m 46.865,240.561 h 11.243 v 11.422 H 46.865 Z"
           style="fill:#987b51;fill-opacity:1;fill-rule:evenodd;stroke:none"
           id="path154" />
        <path
           d="M 46.724,251.982 H 97.49 v 58.374 H 46.724 Z"
           style="fill:#f9cc78;fill-opacity:1;fill-rule:evenodd;stroke:none"
           id="path156" />
        <path
           d="m 94.338,251.982 h 38.905 v 58.374 H 94.338 Z"
           style="fill:#e1a04a;fill-opacity:1;fill-rule:evenodd;stroke:none"
           id="path158" />
        <path
           d="m 63.331,302.317 h 10.032 v 8.039 H 63.331 Z"
           style="fill:#987b51;fill-opacity:1;fill-rule:evenodd;stroke:none"
           id="path160" />
      </g>
    </g>
  </g>
</svg>
